<svg xmlns="http://www.w3.org/2000/svg" version="1.1" xmlns:xlink="http://www.w3.org/1999/xlink" xmlns:svgjs="http://svgjs.dev/svgjs" width="1000" height="1000" viewBox="0 0 1000 1000"><rect width="1000" height="1000" fill="#ffffff"></rect><g transform="matrix(0.7,0,0,0.7,149.57575757575756,282.1265587044535)"><svg viewBox="0 0 396 247" data-background-color="#ffffff" preserveAspectRatio="xMidYMid meet" height="623" width="1000" xmlns="http://www.w3.org/2000/svg" xmlns:xlink="http://www.w3.org/1999/xlink"><g id="tight-bounds" transform="matrix(1,0,0,1,0.2400000000000091,-0.09999999999999432)"><svg viewBox="0 0 395.52 247.2" height="247.2" width="395.52"><g><svg></svg></g><g><svg viewBox="0 0 395.52 247.2" height="247.2" width="395.52"><mask id="6d78158e-3ffb-401f-900b-4a70640e8f80"><rect width="395.52" height="247.2" fill="white"></rect><g transform="matrix(1,0,0,1,0,38.98985422740523)" id="clone"><svg viewBox="0 0 395.52 169.22029154518953" height="169.22029154518953" width="395.52"><g><svg viewBox="0 0 395.52 169.22029154518953" height="169.22029154518953" width="395.52"><g><svg viewBox="0 0 395.52 169.22029154518953" height="169.22029154518953" width="395.52"><g><svg viewBox="0 0 395.52 169.22029154518953" height="169.22029154518953" width="395.52"><g id="SvgjsG1058"><svg viewBox="0 0 395.52 169.22029154518953" height="169.22029154518953" width="395.52" id="SvgjsSvg1057"><g><svg viewBox="0 0 395.52 169.22029154518953" height="169.22029154518953" width="395.52"><g transform="matrix(1,0,0,1,0,0)"><svg width="395.52" viewBox="-1.75 -27.350000381469727 69.5999984741211 30.350000381469727" height="169.22029154518953" data-palette-color="#233565"><path d="M29.85-4.8L36.8-24.35 40.85-24.35 31.8 0 27.9 0 21.05-18.85 14.15 0 10.3 0 1.25-24.35 5.45-24.35 12.35-4.8 19.4-24.35 22.9-24.35 29.85-4.8ZM64.3-21.4L49.2-3.2 64.85-3.2 64.85 0 44.2 0 44.2-2.8 59.4-21.15 44.7-21.15 44.7-24.35 64.3-24.35 64.3-21.4Z" opacity="1" transform="matrix(1,0,0,1,0,0)" fill="black" class="wordmark-text-0" id="SvgjsPath1056" stroke-width="5" stroke="black" stroke-linejoin="round"></path></svg></g></svg></g></svg></g></svg></g><g></g></svg></g></svg></g></svg></g></mask><g mask="url(#6d78158e-3ffb-401f-900b-4a70640e8f80)"><g><path xmlns="http://www.w3.org/2000/svg" d="M280.16 206.877l70.829-206.877h28.051l-86.257 247.2h-24.545l-70.478-202.318-70.478 202.318h-24.194l-86.608-247.2h29.103l70.128 206.526 71.88-206.526 21.74 0.351z" fill="#233565" fill-rule="nonzero" stroke="none" stroke-width="1" stroke-linecap="butt" stroke-linejoin="miter" stroke-miterlimit="10" stroke-dasharray="" stroke-dashoffset="0" font-family="none" font-weight="none" font-size="none" text-anchor="none" style="mix-blend-mode: normal" data-fill-palette-color="tertiary"></path></g></g><g transform="matrix(1,0,0,1,0,38.98985422740523)"><svg viewBox="0 0 395.52 169.22029154518953" height="169.22029154518953" width="395.52"><g><svg viewBox="0 0 395.52 169.22029154518953" height="169.22029154518953" width="395.52"><g><svg viewBox="0 0 395.52 169.22029154518953" height="169.22029154518953" width="395.52"><g><svg viewBox="0 0 395.52 169.22029154518953" height="169.22029154518953" width="395.52"><g id="textblocktransform"><svg viewBox="0 0 395.52 169.22029154518953" height="169.22029154518953" width="395.52" id="textblock"><g><svg viewBox="0 0 395.52 169.22029154518953" height="169.22029154518953" width="395.52"><g transform="matrix(1,0,0,1,0,0)"><svg width="395.52" viewBox="-1.75 -27.350000381469727 69.5999984741211 30.350000381469727" height="169.22029154518953" data-palette-color="#233565"><path d="M29.85-4.8L36.8-24.35 40.85-24.35 31.8 0 27.9 0 21.05-18.85 14.15 0 10.3 0 1.25-24.35 5.45-24.35 12.35-4.8 19.4-24.35 22.9-24.35 29.85-4.8ZM64.3-21.4L49.2-3.2 64.85-3.2 64.85 0 44.2 0 44.2-2.8 59.4-21.15 44.7-21.15 44.7-24.35 64.3-24.35 64.3-21.4Z" opacity="1" transform="matrix(1,0,0,1,0,0)" fill="#233565" class="wordmark-text-0" data-fill-palette-color="primary" id="text-0"></path></svg></g></svg></g></svg></g></svg></g><g></g></svg></g></svg></g></svg></g></svg></g><defs></defs></svg><rect width="395.52" height="247.2" fill="none" stroke="none" visibility="hidden"></rect></g></svg></g></svg>